<mxfile host="65bd71144e">
    <diagram id="bwNt8tA26kuN-lfELhV7" name="Page-1">
        <mxGraphModel dx="431" dy="644" grid="1" gridSize="10" guides="1" tooltips="1" connect="1" arrows="1" fold="1" page="1" pageScale="1" pageWidth="827" pageHeight="1169" math="0" shadow="0">
            <root>
                <mxCell id="0"/>
                <mxCell id="1" parent="0"/>
                <mxCell id="2" value="参加者" style="html=1;" vertex="1" parent="1">
                    <mxGeometry x="80" y="120" width="110" height="50" as="geometry"/>
                </mxCell>
                <mxCell id="3" value="ルーム" style="html=1;" vertex="1" parent="1">
                    <mxGeometry x="280" y="120" width="110" height="50" as="geometry"/>
                </mxCell>
                <mxCell id="9" value="接続クライアント" style="html=1;" vertex="1" parent="1">
                    <mxGeometry x="280" y="240" width="110" height="50" as="geometry"/>
                </mxCell>
                <mxCell id="10" value="Webブラウザ" style="html=1;" vertex="1" parent="1">
                    <mxGeometry x="180" y="350" width="110" height="50" as="geometry"/>
                </mxCell>
                <mxCell id="11" value="ラズパイ" style="html=1;" vertex="1" parent="1">
                    <mxGeometry x="380" y="350" width="110" height="50" as="geometry"/>
                </mxCell>
                <mxCell id="12" value="Extends" style="endArrow=block;endSize=16;endFill=0;html=1;" edge="1" parent="1" source="10" target="9">
                    <mxGeometry width="160" relative="1" as="geometry">
                        <mxPoint x="610" y="240" as="sourcePoint"/>
                        <mxPoint x="770" y="240" as="targetPoint"/>
                    </mxGeometry>
                </mxCell>
                <mxCell id="13" value="Extends" style="endArrow=block;endSize=16;endFill=0;html=1;" edge="1" parent="1" source="11" target="9">
                    <mxGeometry width="160" relative="1" as="geometry">
                        <mxPoint x="267.72727272727275" y="360" as="sourcePoint"/>
                        <mxPoint x="322.27272727272725" y="300" as="targetPoint"/>
                    </mxGeometry>
                </mxCell>
                <mxCell id="14" value="" style="endArrow=none;html=1;edgeStyle=orthogonalEdgeStyle;rounded=0;" edge="1" parent="1" source="2" target="3">
                    <mxGeometry relative="1" as="geometry">
                        <mxPoint x="610" y="240" as="sourcePoint"/>
                        <mxPoint x="770" y="240" as="targetPoint"/>
                    </mxGeometry>
                </mxCell>
                <mxCell id="15" value="1" style="edgeLabel;resizable=0;html=1;align=left;verticalAlign=bottom;" connectable="0" vertex="1" parent="14">
                    <mxGeometry x="-1" relative="1" as="geometry"/>
                </mxCell>
                <mxCell id="16" value="*" style="edgeLabel;resizable=0;html=1;align=right;verticalAlign=bottom;" connectable="0" vertex="1" parent="14">
                    <mxGeometry x="1" relative="1" as="geometry"/>
                </mxCell>
                <mxCell id="17" value="" style="endArrow=none;html=1;edgeStyle=orthogonalEdgeStyle;rounded=0;" edge="1" parent="1" source="3" target="9">
                    <mxGeometry relative="1" as="geometry">
                        <mxPoint x="200" y="155" as="sourcePoint"/>
                        <mxPoint x="290" y="155" as="targetPoint"/>
                    </mxGeometry>
                </mxCell>
                <mxCell id="18" value="1" style="edgeLabel;resizable=0;html=1;align=left;verticalAlign=bottom;" connectable="0" vertex="1" parent="17">
                    <mxGeometry x="-1" relative="1" as="geometry"/>
                </mxCell>
                <mxCell id="19" value="*" style="edgeLabel;resizable=0;html=1;align=right;verticalAlign=bottom;" connectable="0" vertex="1" parent="17">
                    <mxGeometry x="1" relative="1" as="geometry"/>
                </mxCell>
                <mxCell id="20" value="電気や扇風機の状態" style="html=1;" vertex="1" parent="1">
                    <mxGeometry x="480" y="120" width="110" height="50" as="geometry"/>
                </mxCell>
                <mxCell id="21" value="" style="endArrow=none;html=1;edgeStyle=orthogonalEdgeStyle;rounded=0;" edge="1" parent="1" source="3" target="20">
                    <mxGeometry relative="1" as="geometry">
                        <mxPoint x="200" y="155" as="sourcePoint"/>
                        <mxPoint x="290" y="155" as="targetPoint"/>
                    </mxGeometry>
                </mxCell>
                <mxCell id="22" value="1" style="edgeLabel;resizable=0;html=1;align=left;verticalAlign=bottom;" connectable="0" vertex="1" parent="21">
                    <mxGeometry x="-1" relative="1" as="geometry"/>
                </mxCell>
                <mxCell id="23" value="1" style="edgeLabel;resizable=0;html=1;align=right;verticalAlign=bottom;" connectable="0" vertex="1" parent="21">
                    <mxGeometry x="1" relative="1" as="geometry"/>
                </mxCell>
            </root>
        </mxGraphModel>
    </diagram>
</mxfile>